name rise34.3697peak60.0498fall86.3158.mot
datacolumns 19
datarows 36
range 12.87161400000000 12.92995000000000
endheader
time	ground_force1_vx	ground_force1_vy	ground_force1_vz	ground_force1_px	ground_force1_py	ground_force1_pz	ground_force2_vx	ground_force2_vy	ground_force2_vz	ground_force2_px	ground_force2_py	ground_force2_pz	ground_torque1_x	ground_torque1_y	ground_torque1_z	ground_torque2_x	ground_torque2_y	ground_torque2_z	
12.87161400000000	-45.17961000000000	818.80036900000005	55.25469600000000	0.22930000000000	0.00000000000000	0.12425200000000	0.00000000000000	0.00000000000000	0.00000000000000	0.00000000000000	0.00000000000000	0.00000000000000	0.00000000000000	34.06006100000000	0.00000000000000	0.00000000000000	0.00000000000000	0.00000000000000	
12.87328500000000	-45.64762300000000	818.98715200000004	55.34934800000000	0.22863100000000	0.00000000000000	0.12420500000000	0.00000000000000	0.00000000000000	0.00000000000000	0.00000000000000	0.00000000000000	0.00000000000000	0.00000000000000	34.09824000000000	0.00000000000000	0.00000000000000	0.00000000000000	0.00000000000000	
12.87495200000000	-46.12603400000000	819.06373699999995	55.43520500000000	0.22795100000000	0.00000000000000	0.12415700000000	0.00000000000000	0.00000000000000	0.00000000000000	0.00000000000000	0.00000000000000	0.00000000000000	0.00000000000000	34.13462100000000	0.00000000000000	0.00000000000000	0.00000000000000	0.00000000000000	
12.87662200000000	-46.61513400000000	819.02579800000001	55.51155800000000	0.22726200000000	0.00000000000000	0.12410800000000	0.00000000000000	0.00000000000000	0.00000000000000	0.00000000000000	0.00000000000000	0.00000000000000	0.00000000000000	34.16906400000000	0.00000000000000	0.00000000000000	0.00000000000000	0.00000000000000	
12.87828300000000	-47.11516800000000	818.86906199999999	55.57768400000000	0.22656200000000	0.00000000000000	0.12405900000000	0.00000000000000	0.00000000000000	0.00000000000000	0.00000000000000	0.00000000000000	0.00000000000000	0.00000000000000	34.20141300000000	0.00000000000000	0.00000000000000	0.00000000000000	0.00000000000000	
12.87995100000000	-47.62633900000000	818.58931500000006	55.63284100000000	0.22585100000000	0.00000000000000	0.12400800000000	0.00000000000000	0.00000000000000	0.00000000000000	0.00000000000000	0.00000000000000	0.00000000000000	0.00000000000000	34.23150200000000	0.00000000000000	0.00000000000000	0.00000000000000	0.00000000000000	
12.88162000000000	-48.14880000000000	818.18240900000001	55.67627300000000	0.22512800000000	0.00000000000000	0.12395600000000	0.00000000000000	0.00000000000000	0.00000000000000	0.00000000000000	0.00000000000000	0.00000000000000	0.00000000000000	34.25914900000000	0.00000000000000	0.00000000000000	0.00000000000000	0.00000000000000	
12.88328700000000	-48.68265400000000	817.64426300000002	55.70721100000000	0.22439400000000	0.00000000000000	0.12390300000000	0.00000000000000	0.00000000000000	0.00000000000000	0.00000000000000	0.00000000000000	0.00000000000000	0.00000000000000	34.28416300000000	0.00000000000000	0.00000000000000	0.00000000000000	0.00000000000000	
12.88495100000000	-49.22794800000000	816.97087199999999	55.72487900000000	0.22364800000000	0.00000000000000	0.12384900000000	0.00000000000000	0.00000000000000	0.00000000000000	0.00000000000000	0.00000000000000	0.00000000000000	0.00000000000000	34.30633600000000	0.00000000000000	0.00000000000000	0.00000000000000	0.00000000000000	
12.88662000000000	-49.78467500000000	816.15831000000003	55.72849100000000	0.22288900000000	0.00000000000000	0.12379400000000	0.00000000000000	0.00000000000000	0.00000000000000	0.00000000000000	0.00000000000000	0.00000000000000	0.00000000000000	34.32545100000000	0.00000000000000	0.00000000000000	0.00000000000000	0.00000000000000	
12.88828600000000	-50.35276900000000	815.20273799999995	55.71725900000000	0.22211800000000	0.00000000000000	0.12373700000000	-0.29945300000000	3.65030800000000	0.60700800000000	0.00000000000000	0.00000000000000	0.00000000000000	0.00000000000000	34.34128000000000	0.00000000000000	0.00000000000000	0.33782500000000	0.00000000000000	
12.88994900000000	-50.93210400000000	814.10040400000003	55.69039200000000	0.22133400000000	0.00000000000000	0.12367900000000	-0.44769900000000	7.11542200000000	0.99694800000000	0.00000000000000	0.00000000000000	0.00000000000000	0.00000000000000	34.35358200000000	0.00000000000000	0.00000000000000	0.55818300000000	0.00000000000000	
12.89161500000000	-51.52248800000000	812.84765500000003	55.64710100000000	0.22053700000000	0.00000000000000	0.12361900000000	-0.60729600000000	11.31408100000000	1.44327600000000	0.00000000000000	0.00000000000000	0.00000000000000	0.00000000000000	34.36210900000000	0.00000000000000	0.00000000000000	0.81130300000000	0.00000000000000	
12.89328000000000	-52.12366700000000	811.44093299999997	55.58660100000000	0.21972700000000	0.00000000000000	0.12355800000000	-0.77056400000000	16.20526600000000	1.93398300000000	0.00000000000000	0.00000000000000	0.00000000000000	0.00000000000000	34.36660100000000	0.00000000000000	0.00000000000000	1.09070800000000	0.00000000000000	
12.89494900000000	-52.73531800000000	809.87678700000004	55.50811600000000	0.21890400000000	0.00000000000000	0.12349500000000	-0.92844500000000	21.71608300000000	2.45362600000000	0.00000000000000	0.00000000000000	0.00000000000000	0.00000000000000	34.36679100000000	0.00000000000000	0.00000000000000	1.38800600000000	0.00000000000000	
12.89661500000000	-53.35705100000000	808.15187300000002	55.41087900000000	0.21806800000000	0.00000000000000	0.12343000000000	-1.07102500000000	27.74733800000000	2.98433500000000	0.44517800000000	0.00000000000000	-0.05224600000000	0.00000000000000	34.36240300000000	0.00000000000000	0.00000000000000	2.96604700000000	0.00000000000000	
12.89828100000000	-53.98840300000000	806.26296200000002	55.29413900000000	0.21721900000000	0.00000000000000	0.12336400000000	-1.18815200000000	34.18195400000000	3.50711500000000	0.44960600000000	0.00000000000000	-0.05296600000000	0.00000000000000	34.35315700000000	0.00000000000000	0.00000000000000	3.51052300000000	0.00000000000000	
12.89995200000000	-54.62884300000000	804.20694200000003	55.15716100000000	0.21635700000000	0.00000000000000	0.12329600000000	-1.27009000000000	40.89512600000000	4.00327500000000	0.45337900000000	0.00000000000000	-0.05362600000000	0.00000000000000	34.33876200000000	0.00000000000000	0.00000000000000	4.03424700000000	0.00000000000000	
12.90161900000000	-55.27776400000000	801.98082299999999	54.99923300000000	0.21548300000000	0.00000000000000	0.12322600000000	-1.30812000000000	47.76473700000000	4.45578900000000	0.45661300000000	0.00000000000000	-0.05423500000000	0.00000000000000	34.31892700000000	0.00000000000000	0.00000000000000	4.51994300000000	0.00000000000000	
12.90328700000000	-55.93448600000000	799.58173899999997	54.81966700000000	0.21459500000000	0.00000000000000	0.12315400000000	-1.29500900000000	54.68067800000000	4.85041500000000	0.45940200000000	0.00000000000000	-0.05480000000000	0.00000000000000	34.29335200000000	0.00000000000000	0.00000000000000	4.95309300000000	0.00000000000000	
12.90495100000000	-56.59825400000000	797.00695599999995	54.61780100000000	0.21369600000000	0.00000000000000	0.12308000000000	-1.22531600000000	61.55205400000000	5.17646000000000	0.46182000000000	0.00000000000000	-0.05532500000000	0.00000000000000	34.26173700000000	0.00000000000000	0.00000000000000	5.32274400000000	0.00000000000000	
12.90661700000000	-57.26824000000000	794.25387300000000	54.39300700000000	0.21278400000000	0.00000000000000	0.12300400000000	-1.09550900000000	68.31178900000000	5.42715000000000	0.46392800000000	0.00000000000000	-0.05581700000000	0.00000000000000	34.22377800000000	0.00000000000000	0.00000000000000	5.62191500000000	0.00000000000000	
12.90828300000000	-57.94353700000000	791.32002699999998	54.14469000000000	0.21186000000000	0.00000000000000	0.12292500000000	-0.90391900000000	74.91854200000000	5.59963200000000	0.46577500000000	0.00000000000000	-0.05627700000000	0.00000000000000	34.17916800000000	0.00000000000000	0.00000000000000	5.84760700000000	0.00000000000000	
12.90994700000000	-58.62316400000000	788.20309299999997	53.87229500000000	0.21092400000000	0.00000000000000	0.12284400000000	-0.65055100000000	81.35620000000000	5.69464200000000	0.46740000000000	0.00000000000000	-0.05671100000000	0.00000000000000	34.12760300000000	0.00000000000000	0.00000000000000	6.00049600000000	0.00000000000000	
12.91161300000000	-59.30606800000000	784.90089499999999	53.57530800000000	0.20997800000000	0.00000000000000	0.12276100000000	-0.33679900000000	87.63135900000000	5.71595000000000	0.46883800000000	0.00000000000000	-0.05711900000000	0.00000000000000	34.06877500000000	0.00000000000000	0.00000000000000	6.08436400000000	0.00000000000000	
12.91328600000000	-59.99111600000000	781.41139899999996	53.25325900000000	0.20902000000000	0.00000000000000	0.12267600000000	0.03490400000000	93.76938300000000	5.66963900000000	0.47011700000000	0.00000000000000	-0.05750600000000	0.00000000000000	34.00238100000000	0.00000000000000	0.00000000000000	6.10538200000000	0.00000000000000	
12.91494800000000	-60.67710600000000	777.73272799999995	52.90572600000000	0.20805200000000	0.00000000000000	0.12258800000000	0.46144900000000	99.80958900000000	5.56332200000000	0.47125900000000	0.00000000000000	-0.05787100000000	0.00000000000000	33.92811900000000	0.00000000000000	0.00000000000000	6.07130900000000	0.00000000000000	
12.91662200000000	-61.36276200000000	773.86315600000000	52.53234000000000	0.20707400000000	0.00000000000000	0.12249700000000	0.93940300000000	105.80012200000000	5.40537300000000	0.47228300000000	0.00000000000000	-0.05821900000000	0.00000000000000	33.84568800000000	0.00000000000000	0.00000000000000	5.99070800000000	0.00000000000000	
12.91828100000000	-62.04673600000000	769.80111699999998	52.13278400000000	0.20608600000000	0.00000000000000	0.12240400000000	1.46532500000000	111.79299100000000	5.20422600000000	0.47320800000000	0.00000000000000	-0.05854900000000	0.00000000000000	33.75479600000000	0.00000000000000	0.00000000000000	5.87222800000000	0.00000000000000	
12.91995400000000	-62.72761300000000	765.54520800000000	51.70679800000000	0.20509000000000	0.00000000000000	0.12230800000000	2.03601100000000	117.83962300000000	4.96778300000000	0.47404600000000	0.00000000000000	-0.05886300000000	0.00000000000000	33.65515300000000	0.00000000000000	0.00000000000000	5.72399600000000	0.00000000000000	
12.92162200000000	-63.40391100000000	761.09419200000002	51.25418300000000	0.20408400000000	0.00000000000000	0.12220900000000	2.64868500000000	123.98721399999999	4.70297400000000	0.47480900000000	0.00000000000000	-0.05916300000000	0.00000000000000	33.54647600000000	0.00000000000000	0.00000000000000	5.55316500000000	0.00000000000000	
12.92328200000000	-64.07408300000000	756.44700599999999	50.77480000000000	0.20307100000000	0.00000000000000	0.12210700000000	3.30110900000000	130.27599799999999	4.41546100000000	0.47550700000000	0.00000000000000	-0.05944900000000	0.00000000000000	33.42849000000000	0.00000000000000	0.00000000000000	5.36560000000000	0.00000000000000	
12.92495300000000	-64.73652100000000	751.60276299999998	50.26857400000000	0.20205100000000	0.00000000000000	0.12200300000000	3.99162800000000	136.73749599999999	4.10948600000000	0.47615000000000	0.00000000000000	-0.05972300000000	0.00000000000000	33.30092800000000	0.00000000000000	0.00000000000000	5.16572300000000	0.00000000000000	
12.92661600000000	-65.38955900000001	746.56076099999996	49.73549600000000	0.20102300000000	0.00000000000000	0.12189500000000	4.71916000000000	143.39369600000001	3.78786200000000	0.47674300000000	0.00000000000000	-0.05998500000000	0.00000000000000	33.16353100000000	0.00000000000000	0.00000000000000	4.95649200000000	0.00000000000000	
12.92828100000000	-66.03147800000001	741.32048499999996	49.17562400000000	0.19999000000000	0.00000000000000	0.12178500000000	5.48313100000000	150.25705500000001	3.45206100000000	0.47729400000000	0.00000000000000	-0.06023500000000	0.00000000000000	33.01605200000000	0.00000000000000	0.00000000000000	4.73949200000000	0.00000000000000	
12.92995000000000	-66.66050500000000	735.88162100000000	48.58908700000000	0.19895100000000	0.00000000000000	0.12167100000000	6.28338200000000	157.33117799999999	3.10239500000000	0.47780800000000	0.00000000000000	-0.06047600000000	0.00000000000000	32.85825400000000	0.00000000000000	0.00000000000000	4.51510400000000	0.00000000000000	
